<svg xmlns="http://www.w3.org/2000/svg" class="logo" viewBox="0 0 800 800" enable-background="new 0 0 1000 1000"><path d="M683.335 483.65c0 21.416-17.394 38.768-38.851 38.768h-523.153c-21.456 0-38.847-17.352-38.847-38.768v-357.344c0-21.409 17.391-38.762 38.847-38.762h523.154c21.457 0 38.851 17.353 38.851 38.762v357.344h-.001z" fill="#85ae9b"/><path fill="#f74969" d="M403.532 737.71l-331.711-232.689h331.711z"/><path d="M591.149 184.797c-1.905 3.526-5.475 6.117-10.715 6.117-3.086 0-5.591-.896-7.522-2.352-1.022 26.678-3.789 52.995-4.479 79.789-.884 34.221-.893 68.298-2.451 102.506-2.289 50.095-5.613 101.028-4.984 151.561h105.377c9.369 0 16.962-14.078 16.962-31.443v-149.08l-92.188-157.098z" fill="#6f8b7c"/><path d="M603.31 571.363c0 21.548-17.464 39.008-39.009 39.008h-525.294c-21.542 0-39.007-17.459-39.007-39.008v-359.59c0-21.542 17.464-39.007 39.007-39.007h525.294c21.545 0 39.009 17.464 39.009 39.007v359.59z" fill="#f74969"/><path d="M351.607 296.517h46.57v200.699h-46.57v-21.017c-19.096 17.859-39.634 26.787-61.611 26.787-27.75 0-50.69-10.026-68.823-30.084-17.998-20.468-26.994-46.019-26.994-76.653 0-30.085 8.996-55.152 26.994-75.211 17.995-20.056 40.522-30.085 67.587-30.085 23.352 0 44.302 9.617 62.847 28.849v-23.285zm-110.034 99.731c0 19.234 5.151 34.895 15.454 46.98 10.577 12.229 23.903 18.34 39.975 18.34 17.17 0 31.044-5.905 41.624-17.722 10.577-12.225 15.866-27.746 15.866-46.568 0-18.819-5.29-34.341-15.866-46.569-10.58-11.951-24.315-17.927-41.211-17.927-15.937 0-29.26 6.047-39.975 18.133-10.58 12.229-15.867 27.338-15.867 45.333z" fill="#fff" enable-background="new"/><path d="M795.942 96.006c0-3.85-2.192-4.739-4.874-1.976l-61.545 63.432c-2.681 2.763-4.874 8.174-4.874 12.024v274.276c0 3.85 2.193 9.261 4.874 12.023l61.545 63.435c2.682 2.764 4.874 1.874 4.874-1.976v-421.238z" fill="#85ae9b"/></svg>
