<svg width="380" height="100" xmlns="http://www.w3.org/2000/svg"><title>Layer 1</title><path d="M101.2 59.4c0 2.5-2.1 4.6-4.6 4.6h-62.2c-2.6 0-4.6-2.1-4.6-4.6v-42.4c0-2.5 2.1-4.6 4.6-4.6h62.2c2.6 0 4.6 2.1 4.6 4.6v42.4z" fill="#84AF9B"/><path d="M90.2 23.9c-.2.4-.7.7-1.3.7-.4 0-.7-.1-.9-.3-.1 3.2-.5 6.3-.5 9.5-.1 4.1-.1 8.1-.3 12.2-.3 6-.7 12-.6 18h12.5c1.1 0 2-1.7 2-3.7v-17.7l-10.9-18.7z" fill="#708B7D"/><path d="M87 22.5h-62.5c-2.6 0-4.6 2.1-4.6 4.3v42.8c0 2.9 2.1 4.9 4.6 4.9h21.8l21.6 15.1v-15.1h19.1c2.6 0 4.6-2.1 4.6-4.6v-42.8c.1-2.5-2-4.6-4.6-4.6" fill="#F94569"/><path d="M48.6 49.1c0 2.3.6 4.1 1.8 5.6 1.3 1.5 2.8 2.2 4.8 2.2s3.7-.7 5-2.1c1.3-1.5 1.9-3.3 1.9-5.5s-.6-4.1-1.9-5.5c-1.3-1.4-2.9-2.1-4.9-2.1-1.9 0-3.5.7-4.8 2.2-1.2 1.2-1.9 3-1.9 5.2m13.1-11.9h5.5v23.9h-5.5v-2.5c-2.3 2.1-4.7 3.2-7.3 3.2-3.3 0-6-1.2-8.2-3.6-2.1-2.4-3.2-5.5-3.2-9.1 0-3.6 1.1-6.6 3.2-8.9 2.1-2.4 4.8-3.6 8-3.6 2.8 0 5.3 1.1 7.5 3.4v-2.8z" fill="#fff"/><path d="M114.6 14.6c0-1.2-.7-1.4-1.5-.6l-5.5 5.7c-.8.8-1.5 2.5-1.5 3.7v30c0 1.2.7 2.8 1.5 3.7l5.5 5.7c.8.8 1.5.6 1.5-.6v-47.6z" fill="#84AF9B"/><path d="M144.1 42.6c0 2.4.6 4.3 1.9 5.8 1.3 1.5 2.9 2.3 4.9 2.3 2.1 0 3.8-.7 5.1-2.2 1.3-1.5 2-3.4 2-5.7 0-2.3-.7-4.2-2-5.7s-3-2.2-5.1-2.2c-2 0-3.6.7-4.9 2.2-1.3 1.4-1.9 3.3-1.9 5.5m13.6-12.3h5.7v24.7h-5.7v-2.6c-2.4 2.2-4.9 3.3-7.6 3.3-3.4 0-6.3-1.2-8.5-3.7s-3.3-5.7-3.3-9.5c0-3.7 1.1-6.8 3.3-9.3 2.2-2.5 5-3.7 8.3-3.7 2.9 0 5.5 1.2 7.8 3.6v-2.8zm32.2 12.5c0-2.4-.6-4.3-1.9-5.8-1.3-1.5-2.9-2.3-4.9-2.3-2.1 0-3.8.7-5.1 2.2-1.3 1.5-2 3.4-2 5.7 0 2.3.7 4.2 2 5.7s3 2.2 5.1 2.2c2 0 3.6-.7 4.9-2.2 1.3-1.4 1.9-3.2 1.9-5.5m-13.6 25.7h-5.7v-38.2h5.7v2.7c2.3-2.3 4.8-3.4 7.7-3.4 3.4 0 6.2 1.3 8.4 3.8s3.4 5.6 3.4 9.4c0 3.7-1.1 6.8-3.3 9.3-2.2 2.5-5 3.7-8.3 3.7-2.9 0-5.5-1.2-7.8-3.5v16.2h-.1zm44.9-25.7c0-2.4-.6-4.3-1.9-5.8-1.3-1.5-2.9-2.3-4.9-2.3-2.1 0-3.8.7-5.1 2.2-1.3 1.5-2 3.4-2 5.7 0 2.3.7 4.2 2 5.7s3 2.2 5.1 2.2c2 0 3.6-.7 4.9-2.2 1.2-1.4 1.9-3.2 1.9-5.5m-13.6 25.7h-5.7v-38.2h5.7v2.7c2.3-2.3 4.8-3.4 7.7-3.4 3.4 0 6.2 1.3 8.4 3.8s3.4 5.6 3.4 9.4c0 3.7-1.1 6.8-3.3 9.3-2.2 2.5-5 3.7-8.3 3.7-2.9 0-5.5-1.2-7.8-3.5v16.2h-.1zm42.1-29.2c-.8-3.1-2.7-4.6-5.8-4.6-.7 0-1.3.1-2 .3-.6.2-1.2.5-1.7.9s-.9.9-1.3 1.4c-.4.6-.6 1.2-.8 1.9h11.6v.1zm5.9 4.7h-17.7c.2 2 .8 3.7 2 4.9 1.2 1.2 2.7 1.8 4.5 1.8 1.4 0 2.6-.3 3.5-1 .9-.7 2-1.9 3.1-3.8l4.8 2.7c-.7 1.3-1.5 2.4-2.4 3.3-.8.9-1.7 1.7-2.7 2.2-.9.6-2 1-3.1 1.3-1.1.3-2.3.4-3.6.4-3.7 0-6.7-1.2-8.9-3.6-2.2-2.4-3.4-5.6-3.4-9.5 0-3.9 1.1-7.1 3.3-9.5 2.2-2.4 5.1-3.6 8.7-3.6 3.6 0 6.5 1.2 8.6 3.5 2.1 2.3 3.2 5.5 3.2 9.6l.1 1.3zm10.9-1.4c0 2.4.6 4.3 1.9 5.8 1.3 1.5 3 2.3 4.9 2.3 2.1 0 3.8-.7 5.1-2.2 1.3-1.5 2-3.4 2-5.7 0-2.3-.7-4.2-2-5.7s-3-2.2-5.1-2.2c-2 0-3.6.7-4.9 2.2-1.2 1.4-1.9 3.3-1.9 5.5m13.6-12.3h5.7v24.7h-5.7v-2.6c-2.4 2.2-4.9 3.3-7.6 3.3-3.4 0-6.3-1.2-8.5-3.7s-3.3-5.7-3.3-9.5c0-3.7 1.1-6.8 3.3-9.3 2.2-2.5 5-3.7 8.3-3.7 2.9 0 5.5 1.2 7.8 3.6v-2.8zm13 0h5.7v2.2c1-1.1 2-1.9 2.8-2.3.8-.4 1.8-.6 3-.6 1.5 0 3.1.5 4.7 1.5l-2.6 5.2c-1.1-.8-2.1-1.2-3.2-1.2-3.1 0-4.7 2.4-4.7 7.1v12.8h-5.7v-24.7zm17.5 21.9c0-.9.3-1.8 1-2.5s1.5-1 2.5-1 1.8.3 2.5 1 1 1.5 1 2.5-.3 1.8-1 2.5-1.5 1-2.5 1-1.8-.3-2.5-1c-.6-.6-1-1.5-1-2.5m20.9 2.8h-5.7v-24.8h5.7v24.8zm-6.6-35c0-1 .4-1.9 1.1-2.6.7-.7 1.6-1.1 2.6-1.1s1.9.4 2.6 1.1c.7.7 1.1 1.6 1.1 2.6s-.4 1.9-1.1 2.6c-.7.7-1.6 1.1-2.6 1.1s-1.9-.4-2.6-1.1c-.7-.7-1.1-1.6-1.1-2.6" fill="#fff"/><path d="M338.8 30.3h5.7v2.3c2-2 4.3-3 6.8-3 2.9 0 5.1.9 6.7 2.7 1.4 1.5 2.1 4.1 2.1 7.5v15.2h-5.7v-13.8c0-2.4-.3-4.1-1-5.1-.7-.9-1.9-1.4-3.6-1.4-1.9 0-3.2.6-4 1.9-.8 1.2-1.2 3.4-1.2 6.5v11.9h-5.7v-24.7h-.1z" fill="#fff"/></svg>
